<?xml version="1.0" standalone="no"?>
<svg xmlns:xlink="http://www.w3.org/1999/xlink" id="wave" style="transform:rotate(0deg); transition: 0.3s" viewBox="0 0 1440 230" version="1.1" xmlns="http://www.w3.org/2000/svg"><defs><linearGradient id="sw-gradient-0" x1="0" x2="0" y1="1" y2="0"><stop stop-color="rgba(37, 32, 32, 1)" offset="0%"/><stop stop-color="#738b84" offset="100%"/></linearGradient></defs><path style="transform:translate(0, 0px); opacity:1" fill="url(#sw-gradient-0)" d="M0,184L24,153.3C48,123,96,61,144,53.7C192,46,240,92,288,107.3C336,123,384,107,432,115C480,123,528,153,576,168.7C624,184,672,184,720,161C768,138,816,92,864,72.8C912,54,960,61,1008,76.7C1056,92,1104,115,1152,126.5C1200,138,1248,138,1296,134.2C1344,130,1392,123,1440,126.5C1488,130,1536,146,1584,157.2C1632,169,1680,176,1728,149.5C1776,123,1824,61,1872,53.7C1920,46,1968,92,2016,111.2C2064,130,2112,123,2160,134.2C2208,146,2256,176,2304,176.3C2352,176,2400,146,2448,130.3C2496,115,2544,115,2592,122.7C2640,130,2688,146,2736,130.3C2784,115,2832,69,2880,42.2C2928,15,2976,8,3024,3.8C3072,0,3120,0,3168,30.7C3216,61,3264,123,3312,153.3C3360,184,3408,184,3432,184L3456,184L3456,230L3432,230C3408,230,3360,230,3312,230C3264,230,3216,230,3168,230C3120,230,3072,230,3024,230C2976,230,2928,230,2880,230C2832,230,2784,230,2736,230C2688,230,2640,230,2592,230C2544,230,2496,230,2448,230C2400,230,2352,230,2304,230C2256,230,2208,230,2160,230C2112,230,2064,230,2016,230C1968,230,1920,230,1872,230C1824,230,1776,230,1728,230C1680,230,1632,230,1584,230C1536,230,1488,230,1440,230C1392,230,1344,230,1296,230C1248,230,1200,230,1152,230C1104,230,1056,230,1008,230C960,230,912,230,864,230C816,230,768,230,720,230C672,230,624,230,576,230C528,230,480,230,432,230C384,230,336,230,288,230C240,230,192,230,144,230C96,230,48,230,24,230L0,230Z"/></svg>